<svg xmlns="http://www.w3.org/2000/svg" version="1.1" xmlns:xlink="http://www.w3.org/1999/xlink" xmlns:svgjs="http://svgjs.dev/svgjs" viewBox="0 0 3.6254349287071346 1.9652873178787749"><g transform="matrix(1,0,0,1,1.83431257558483,0.49956242569397025)"><g><path d=" M 0.54917578125 0.15134765625000013 Q 0.53350048828125 0.19675195312500005 0.52268994140625 0.25539916992187506 Q 0.51187939453125 0.31404638671875007 0.51187939453125 0.3843149414062501 Q 0.51187939453125 0.4340434570312501 0.51512255859375 0.4848530273437501 Q 0.51836572265625 0.5356625976562501 0.52052783203125 0.5940395507812501 Q 0.53350048828125 0.5870126953125001 0.54322998046875 0.5870126953125001 Q 0.55079736328125 0.5870126953125001 0.5567431640625 0.5921477050781251 Q 0.56268896484375 0.5972827148437501 0.56268896484375 0.6053906250000001 Q 0.56268896484375 0.6172822265625001 0.55187841796875 0.622957763671875 Q 0.54106787109375 0.6286333007812501 0.521068359375 0.6372817382812501 L 0.521068359375 0.6843076171875001 Q 0.521068359375 0.8075478515625001 0.506744384765625 0.910518310546875 Q 0.49242041015625 1.01348876953125 0.460529296875 1.087811279296875 Q 0.42863818359375 1.1621337890625 0.376477294921875 1.20375439453125 Q 0.32431640625 1.2453750000000001 0.24918310546875 1.2453750000000001 Q 0.2172919921875 1.2453750000000001 0.18648193359375 1.233213134765625 Q 0.155671875 1.22105126953125 0.131618408203125 1.19618701171875 Q 0.10756494140625 1.17132275390625 0.092700439453125 1.1342966308593752 Q 0.0778359375 1.0972705078125 0.0778359375 1.0475419921875 Q 0.0778359375 0.9929487304687501 0.098105712890625 0.9434904785156251 Q 0.11837548828125 0.8940322265625001 0.151617919921875 0.8505197753906251 Q 0.1848603515625 0.8070073242187501 0.22756201171874998 0.7699812011718751 Q 0.270263671875 0.732955078125 0.314857177734375 0.7026855468750001 Q 0.35945068359375 0.6724160156250001 0.40269287109375 0.6497138671875001 Q 0.44593505859375 0.6270117187500001 0.47998828125 0.6124174804687501 Q 0.4789072265625 0.5567431640625 0.47512353515625 0.5007985839843752 Q 0.47133984375 0.4448540039062501 0.47133984375 0.3859365234375001 Q 0.47133984375 0.3308027343750001 0.478096435546875 0.2797229003906251 Q 0.48485302734375 0.2286430664062501 0.49674462890625 0.18431982421875015 Q 0.4756640625 0.19621142578125006 0.450529541015625 0.20648144531250012 Q 0.42539501953125 0.21675146484375007 0.397828125 0.22594042968750006 Q 0.37026123046875 0.23512939453125015 0.341343017578125 0.24377783203125014 Q 0.3124248046875 0.25242626953125014 0.2843173828125 0.26053417968750014 Q 0.24161572265625 0.27296630859375015 0.206751708984375 0.2878308105468751 Q 0.1718876953125 0.30269531250000015 0.1470234375 0.3221542968750001 Q 0.1221591796875 0.3416132812500001 0.108375732421875 0.3664775390625001 Q 0.09459228515625 0.3913417968750001 0.09459228515625 0.42377343750000007 Q 0.09459228515625 0.4616103515625001 0.1091865234375 0.4880961914062501 Q 0.12378076171875 0.51458203125 0.14729370117187499 0.531068115234375 Q 0.170806640625 0.54755419921875 0.200265380859375 0.5548513183593751 Q 0.22972412109374998 0.5621484375000001 0.25891259765625 0.5621484375000001 Q 0.26756103515625 0.5621484375000001 0.273236572265625 0.5680942382812502 Q 0.278912109375 0.5740400390625001 0.278912109375 0.5826884765625001 Q 0.278912109375 0.5913369140625001 0.272696044921875 0.5970124511718751 Q 0.26647998046875 0.6026879882812501 0.25891259765625 0.6026879882812501 Q 0.22215673828125 0.6026879882812501 0.185671142578125 0.5921477050781251 Q 0.149185546875 0.581607421875 0.1199970703125 0.5597160644531252 Q 0.09080859375 0.5378247070312501 0.0724306640625 0.5043120117187501 Q 0.054052734375 0.4707993164062501 0.054052734375 0.4253950195312501 Q 0.054052734375 0.3859365234375001 0.069998291015625 0.3548562011718751 Q 0.08594384765625 0.32377587890625015 0.114591796875 0.2994521484375001 Q 0.14323974609375 0.2751284179687501 0.183779296875 0.25675048828125013 Q 0.22431884765625 0.23837255859375006 0.27350683593749997 0.2243188476562501 Q 0.309181640625 0.21404882812500015 0.34431591796875 0.2026977539062501 Q 0.3794501953125 0.19134667968750008 0.411071044921875 0.17918481445312506 Q 0.44269189453125 0.16702294921875005 0.469177734375 0.15378002929687506 Q 0.49566357421875 0.14053710937500008 0.51458203125 0.12594287109375013 Q 0.536203125 0.06540380859375006 0.5610673828125 0.03270190429687514 Q 0.585931640625 1.1102230246251565e-16 0.6086337890625 1.1102230246251565e-16 Q 0.61349853515625 1.1102230246251565e-16 0.619174072265625 0.0018918457031250613 Q 0.624849609375 0.0037836914062501226 0.629984619140625 0.007837646484375127 Q 0.63511962890625 0.011891601562500131 0.63836279296875 0.018918457031250058 Q 0.64160595703125 0.025945312500000095 0.64160595703125 0.03621533203125016 Q 0.64160595703125 0.05999853515625009 0.61674169921875 0.09026806640625007 Q 0.59187744140625 0.12053759765625005 0.54917578125 0.15134765625000013 Z M 0.48052880859374997 0.6551191406250001 Q 0.44917822265625 0.6686323242187501 0.41026025390625 0.6897128906250001 Q 0.37134228515625 0.7107934570312501 0.331072998046875 0.7389008789062501 Q 0.2908037109375 0.76700830078125 0.252696533203125 0.8010615234375 Q 0.21458935546875 0.8351147460937501 0.184590087890625 0.8743029785156251 Q 0.1545908203125 0.9134912109375001 0.136483154296875 0.957003662109375 Q 0.11837548828125 1.0005161132812501 0.11837548828125 1.04700146484375 Q 0.11837548828125 1.0864599609375 0.1297265625 1.11618896484375 Q 0.14107763671875 1.14591796875 0.160266357421875 1.16591748046875 Q 0.179455078125 1.1859169921875001 0.204049072265625 1.195916748046875 Q 0.22864306640624998 1.20591650390625 0.25458837890625 1.20591650390625 Q 0.2994521484375 1.20591650390625 0.33350537109375 1.1851062011718752 Q 0.36755859375 1.1642958984375 0.392693115234375 1.1272697753906251 Q 0.41782763671875 1.0902436523437502 0.434583984375 1.039163818359375 Q 0.45134033203125 0.9880839843750001 0.4616103515625 0.9267341308593751 Q 0.47188037109375 0.8653842773437501 0.47620458984374997 0.796467041015625 Q 0.48052880859374997 0.7275498046875001 0.48052880859374997 0.6551191406250001 Z M 1.53563818359375 0.6659296875 Q 1.5102333984374998 0.7070097656250001 1.4669912109375 0.7472790527343751 Q 1.4237490234374999 0.7875483398437501 1.368344970703125 0.8197097167968751 Q 1.31294091796875 0.8518710937500001 1.247537109375 0.8716003417968751 Q 1.18213330078125 0.8913295898437501 1.1124052734375 0.8913295898437501 Q 1.05781201171875 0.8913295898437501 1.0034890136718748 0.8816000976562501 Q 0.9491660156249999 0.8718706054687501 0.8991672363281249 0.8518710937500001 Q 0.84916845703125 0.8318715820312501 0.8061965332031249 0.8013317871093751 Q 0.7632246093749999 0.7707919921875 0.73133349609375 0.7291713867187501 Q 0.6994423828124999 0.6875507812500001 0.681334716796875 0.6345791015625001 Q 0.66322705078125 0.581607421875 0.66322705078125 0.5167441406250001 Q 0.66322705078125 0.4535024414062501 0.681875244140625 0.3967470703125001 Q 0.7005234375 0.33999169921875005 0.7340361328124999 0.2916145019531251 Q 0.7675488281249999 0.24323730468750004 0.8134936523437499 0.20431933593750007 Q 0.8594384765624999 0.1654013671875001 0.91403173828125 0.13810473632812514 Q 0.968625 0.11080810546875008 1.0291640625 0.09621386718750014 Q 1.089703125 0.08161962890625007 1.1529448242187499 0.08161962890625007 Q 1.2226728515624998 0.08161962890625007 1.284022705078125 0.09810571289062509 Q 1.34537255859375 0.1145917968750001 1.3913173828124998 0.14459106445312508 Q 1.43726220703125 0.17459033203125007 1.464018310546875 0.21648120117187508 Q 1.4907744140624999 0.2583720703125001 1.4907744140624999 0.3097221679687501 Q 1.4907744140624999 0.35728857421875004 1.46861279296875 0.4002604980468751 Q 1.446451171875 0.4432324218750001 1.4078034667968748 0.4756640625000001 Q 1.36915576171875 0.5080957031250001 1.317535400390625 0.5270141601562501 Q 1.2659150390625 0.5459326171875001 1.2075380859375 0.5459326171875001 Q 1.16051220703125 0.5459326171875001 1.124296875 0.5343112792968752 Q 1.0880815429687498 0.52268994140625 1.0637578125 0.5021499023437501 Q 1.03943408203125 0.4816098632812501 1.027001953125 0.4540429687500001 Q 1.01456982421875 0.4264760742187501 1.01456982421875 0.3945849609375001 Q 1.01456982421875 0.3680991210937501 1.022947998046875 0.3462077636718751 Q 1.031326171875 0.32431640625000013 1.041325927734375 0.3086411132812501 Q 1.05132568359375 0.29296582031250007 1.0602443847656249 0.2840471191406251 Q 1.0691630859374999 0.2751284179687501 1.0702441406249998 0.2740473632812501 Q 1.07294677734375 0.2713447265625001 1.076460205078125 0.2705339355468751 Q 1.0799736328125 0.2697231445312501 1.083216796875 0.2697231445312501 Q 1.091865234375 0.2697231445312501 1.09781103515625 0.2751284179687501 Q 1.1037568359374998 0.28053369140625006 1.1037568359374998 0.28918212890625006 Q 1.1037568359374998 0.29891162109375014 1.09672998046875 0.3053979492187501 Q 1.09564892578125 0.30593847656250006 1.08916259765625 0.3126950683593751 Q 1.08267626953125 0.31945166015625015 1.07510888671875 0.33107299804687507 Q 1.06754150390625 0.3426943359375001 1.061325439453125 0.3589101562500001 Q 1.055109375 0.3751259765625001 1.055109375 0.3945849609375001 Q 1.055109375 0.4253950195312501 1.0688928222656249 0.4464755859375001 Q 1.08267626953125 0.4675561523437501 1.1048378906249998 0.48079907226562507 Q 1.12699951171875 0.4940419921875001 1.1540258789062499 0.4997175292968751 Q 1.18105224609375 0.50539306640625 1.20807861328125 0.50539306640625 Q 1.25834765625 0.50539306640625 1.302400634765625 0.4891772460937501 Q 1.34645361328125 0.4729614257812501 1.37942578125 0.4459350585937501 Q 1.41239794921875 0.4189086914062501 1.43131640625 0.3837744140625001 Q 1.45023486328125 0.34864013671875005 1.45023486328125 0.31026269531250006 Q 1.45023486328125 0.26810156250000006 1.4264516601562498 0.23323754882812509 Q 1.40266845703125 0.1983735351562501 1.36212890625 0.1737795410156251 Q 1.32158935546875 0.14918554687500007 1.267266357421875 0.1356723632812501 Q 1.212943359375 0.12215917968750012 1.1513232421875 0.12215917968750012 Q 1.1048378906249998 0.12215917968750012 1.0537580566406248 0.13323999023437505 Q 1.0026782226562498 0.1443208007812501 0.9529497070312499 0.16648242187500006 Q 0.90322119140625 0.18864404296875015 0.858087158203125 0.22161621093750006 Q 0.8129531249999999 0.2545883789062501 0.77889990234375 0.29864135742187514 Q 0.7448466796875 0.3426943359375001 0.7245769042968749 0.3972875976562501 Q 0.7043071289062499 0.4518808593750001 0.7043071289062499 0.5167441406250001 Q 0.7043071289062499 0.5756616210937501 0.7207932128906249 0.62322802734375 Q 0.7372792968749999 0.6707944335937501 0.7664677734374999 0.707820556640625 Q 0.79565625 0.7448466796875001 0.8348444824218749 0.7718730468750001 Q 0.8740327148437499 0.7988994140625001 0.919166748046875 0.8164665527343751 Q 0.96430078125 0.83403369140625 1.01348876953125 0.8424118652343751 Q 1.0626767578125 0.8507900390625001 1.1113242187499999 0.8507900390625001 Q 1.1761875 0.8507900390625001 1.23618603515625 0.8326823730468751 Q 1.2961845703125 0.8145747070312501 1.347264404296875 0.7851159667968751 Q 1.39834423828125 0.7556572265625001 1.437802734375 0.7189013671875001 Q 1.4772612304687498 0.6821455078125 1.50050390625 0.6448491210937501 Q 1.50320654296875 0.639984375 1.5080712890624999 0.6375520019531251 Q 1.51293603515625 0.6351196289062501 1.51834130859375 0.6351196289062501 Q 1.5275302734374998 0.6351196289062501 1.532935546875 0.6413356933593751 Q 1.5383408203125 0.6475517578125001 1.5383408203125 0.6551191406250001 Q 1.5383408203125 0.65782177734375 1.53780029296875 0.6605244140625001 Q 1.537259765625 0.6632270507812501 1.53563818359375 0.6659296875 Z" fill="#b4d1d9" fill-rule="nonzero"></path></g><g></g><g clip-path="url(&quot;#SvgjsClipPath1022&quot;)"><path d=" M -0.9753723314133793 0.008259392265654697 L -0.7588304448577511 0.13328561758555435 L -0.6829661420407022 0.08948617104693496 L -0.9753723314133793 -0.07933950081158403 L -0.9753723314133793 0.008259392265654697 Z" fill="#b4d1d9" transform="matrix(1,0,0,1,0,0)" fill-rule="nonzero"></path><path d=" M -1.0185864234328261 0.008259392265654697 L -1.0185864234328261 -0.07933950081158403 L -1.3109926128055034 0.08948617104693496 L -1.2351283099884545 0.13328561758555435 L -1.0185864234328261 0.008259392265654697 Z" fill="#b4d1d9" transform="matrix(1,0,0,1,0,0)" fill-rule="nonzero"></path><path d=" M -0.9969793774231032 -0.27921253350916564 L -1.6139626834000254 0.0770090841147747 L -1.6139626834000254 0.7894562479164754 L -0.9969793774231032 1.1456739369865958 L -0.38000392855382037 0.7894523193626554 L -0.38000392855382037 0.0770090841147747 Z M -0.9969793774231032 -0.22931989999580427 L -0.44482506658299026 0.08948224249311504 L -0.9969793774231032 0.40828438498203434 L -1.549141545370855 0.08948617104693496 Z M -0.975372331413379 1.083300287987254 L -0.975372331413379 0.44569600300941525 L -0.42321802057326696 0.12689778907431604 L -0.42321802057326696 0.7645020740521548 Z M -1.5707446628267585 0.7645020740521548 L -1.5707446628267585 0.12689778907431604 L -1.0185864234328266 0.44569600300941525 L -1.0185864234328266 1.083300287987254 Z" fill="#da0b5b" transform="matrix(1,0,0,1,0,0)" fill-rule="nonzero"></path><path d=" M -0.5965458151094492 0.08948617104693496 L -0.9969793774231032 -0.14171314981092564 L -1.3974168682905772 0.08948617104693496 L -0.9969793774231032 0.32068156335097564 Z M -0.9969793774231032 0.27078500128379435 L -1.1919181465228277 0.15823586289605496 L -0.9969833059769231 0.045686724508315624 L -0.8020563225386584 0.15823979144987493 C -0.8751077808206229 0.20043245947613492 -0.9529010035632677 0.24533975819198006 -0.9969793774231032 0.27078500128379435 Z M -1.0185864234328266 -0.07933950081158406 L -1.0185864234328266 0.008267249373294594 L -1.235132238542275 0.13328561758555435 L -1.3109926128055032 0.08948617104693496 Z M -0.7588304448577512 0.13328561758555435 L -0.975372331413379 0.008259392265654697 L -0.975372331413379 -0.07934735791922393 L -0.6829700705945223 0.08947831393929506 Z" fill="#da0b5b" transform="matrix(1,0,0,1,0,0)" fill-rule="nonzero"></path><path d=" M -0.89951588570397 0.4895072352094947 L -0.89951588570397 0.951898019817576 L -0.49907446628267604 0.7206986989597154 L -0.49907446628267604 0.25830791435163414 Z M -0.8563017936845234 0.739559685849294 L -0.8563017936845234 0.5144535519661753 L -0.6613708816924389 0.401904413578436 L -0.6613708816924389 0.6270105474615546 Z M -0.6181567896729923 0.6270066189077346 L -0.6181567896729923 0.3769580968217554 L -0.5422924868559433 0.33315865028313596 L -0.5422924868559433 0.6708060654463541 Z M -0.8563057222383433 0.8770551409937138 L -0.8563057222383433 0.7894483908088351 L -0.6397638356827156 0.6644221654889356 L -0.5638995328656666 0.708225540581375 Z" fill="#da0b5b" transform="matrix(1,0,0,1,0,0)" fill-rule="nonzero"></path><path d=" M -1.49490000277881 0.7207065560673555 L -1.0944625119113351 0.9519058769252161 L -1.0944625119113351 0.48951509231713464 L -1.49490000277881 0.25830791435163414 Z M -1.1376766039307826 0.7894562479164754 L -1.1376766039307826 0.8770629981013539 L -1.4300788647496394 0.7082412547966549 L -1.3542145619325914 0.6644378797042156 Z M -1.3758216079423138 0.3769580968217554 L -1.3758216079423138 0.6270066189077347 L -1.4516859107593625 0.6708060654463541 L -1.4516859107593625 0.33315865028313596 Z M -1.1376766039307826 0.5144574805199954 L -1.1376766039307826 0.739563614403114 L -1.3326075159228663 0.6270144760153746 L -1.3326075159228663 0.401908342132256 Z" fill="#da0b5b" transform="matrix(1,0,0,1,0,0)" fill-rule="nonzero"></path></g></g><defs><clipPath id="SvgjsClipPath1022"><path d=" M -1.6139626834000254 -0.27921253350916564 h 1.2339626834000252 v 1.4248903990495814 h -1.2339626834000252 Z"></path></clipPath></defs></svg>